<svg width="24" height="24" viewBox="0 0 24 24" fill="none" xmlns="http://www.w3.org/2000/svg">
<path d="M16.571 6.26269C15.921 6.55269 14.911 7.11269 13.771 7.76269L8.311 7.00269C8.218 6.98869 8.111 6.98069 8.002 6.98069C7.791 6.98069 7.588 7.01069 7.395 7.06669L6.21 7.40269C6.11 7.40269 6.11 7.50269 6.21 7.54269L10.77 9.54269C9.23 10.4627 7.86 11.3027 7.26 11.6827C7.13 11.7647 6.972 11.8127 6.802 11.8127C6.708 11.8127 6.618 11.7977 6.534 11.7707L5.34 11.3927C5.254 11.3617 5.154 11.3437 5.05 11.3437C4.946 11.3437 4.846 11.3617 4.754 11.3947L4 11.7027L6.52 13.8027C6.672 13.9297 6.869 14.0077 7.085 14.0077C7.214 14.0077 7.336 13.9797 7.446 13.9307C8.65 13.3927 11.82 11.9327 14.18 10.7027C19.42 7.92269 20 7.44269 20 7.00269C20 6.31269 18 5.60269 16.57 6.26269H16.571Z" fill="black"/>
<path d="M4.00098 17.0029H20.001V18.0029H4.00098V17.0029Z" fill="black"/>
</svg>
