<svg width="83" height="22" viewBox="0 0 83 22" fill="none" xmlns="http://www.w3.org/2000/svg">
<g clip-path="url(#clip0_2284_1226)">
<path d="M83 0H0V22H83V0Z" fill="white"/>
<path d="M18.5215 15.7947V5.07671C18.5215 4.68728 18.2097 4.37158 17.8252 4.37158H15.0399C14.6554 4.37158 14.3436 4.68728 14.3436 5.07671V15.7947C14.3436 16.1841 14.6554 16.4998 15.0399 16.4998H17.8252C18.2097 16.4998 18.5215 16.1841 18.5215 15.7947Z" fill="#C6A39E" stroke="#0A1A26" stroke-width="1.5"/>
<path d="M18.5215 15.7947V5.07671C18.5215 4.68728 18.2097 4.37158 17.8252 4.37158L6.68424 4.37158C6.29968 4.37158 5.98793 4.68728 5.98793 5.07671V15.7947C5.98793 16.1841 6.29968 16.4998 6.68424 16.4998H17.8252C18.2097 16.4998 18.5215 16.1841 18.5215 15.7947Z" stroke="#06131E" stroke-width="1.5"/>
<path d="M25.7371 11.9519V10.7708H28.4354C28.8241 10.7708 29.1259 10.6415 29.3406 10.3829C29.5552 10.1244 29.6626 9.76303 29.6626 9.29883V6.80442C29.6626 6.3167 29.5552 5.9436 29.3406 5.68502C29.1317 5.42061 28.8299 5.2884 28.4354 5.2884H25.7371V4.10731H28.3744C28.914 4.10731 29.3725 4.21308 29.7496 4.42461C30.1268 4.63615 30.414 4.94171 30.6113 5.34128C30.8144 5.74086 30.9159 6.22859 30.9159 6.80442V9.31643C30.9159 9.87466 30.8144 10.3507 30.6113 10.7443C30.414 11.138 30.1239 11.4377 29.7409 11.6434C29.3637 11.849 28.9082 11.9519 28.3744 11.9519H25.7371ZM24.8232 16.923V4.10731H26.0766V16.923H24.8232ZM35.7682 17.0552C35.1067 17.0552 34.5409 16.9289 34.0709 16.6762C33.6009 16.4236 33.2412 16.0593 32.9916 15.5833C32.7479 15.1014 32.6261 14.5168 32.6261 13.8292V7.20104C32.6261 6.51357 32.7479 5.93181 32.9916 5.45587C33.2412 4.97403 33.6009 4.60677 34.0709 4.3541C34.5409 4.10143 35.1067 3.9751 35.7682 3.9751C36.4354 3.9751 37.0012 4.10143 37.4654 4.3541C37.9354 4.60677 38.2923 4.97403 38.536 5.45587C38.7855 5.93181 38.9102 6.51357 38.9102 7.20104V13.8292C38.9102 14.5168 38.7855 15.1014 38.536 15.5833C38.2923 16.0593 37.9354 16.4236 37.4654 16.6762C37.0012 16.9289 36.4354 17.0552 35.7682 17.0552ZM35.7682 15.8124C36.3717 15.8124 36.8359 15.645 37.1608 15.31C37.4916 14.9692 37.6569 14.4962 37.6569 13.891V7.13933C37.6569 6.52824 37.4916 6.05524 37.1608 5.72027C36.8359 5.38535 36.3717 5.21788 35.7682 5.21788C35.1705 5.21788 34.7063 5.38535 34.3755 5.72027C34.0448 6.05524 33.8794 6.52824 33.8794 7.13933V13.891C33.8794 14.4962 34.0448 14.9692 34.3755 15.31C34.7063 15.645 35.1705 15.8124 35.7682 15.8124ZM43.4752 17.0552C42.7906 17.0552 42.219 16.9465 41.7606 16.7291C41.3022 16.5058 40.9598 16.1709 40.7336 15.7243C40.5072 15.2777 40.3941 14.7195 40.3941 14.0496V13.415H41.63V14.0496C41.63 14.6666 41.7838 15.1279 42.0914 15.4334C42.3989 15.739 42.8602 15.8918 43.4752 15.8918C44.0787 15.8918 44.5284 15.739 44.8244 15.4334C45.1261 15.1279 45.277 14.6666 45.277 14.0496V13.2916C45.277 12.8391 45.1754 12.466 44.9723 12.1722C44.7693 11.8784 44.5052 11.6287 44.1803 11.423C43.8612 11.2115 43.5159 11.0146 43.1445 10.8325C42.8137 10.668 42.4859 10.4975 42.161 10.3213C41.8419 10.1391 41.5488 9.92758 41.2819 9.68665C41.015 9.44572 40.8003 9.15487 40.6378 8.81404C40.4811 8.46734 40.4028 8.05013 40.4028 7.56241V6.93665C40.4028 5.9436 40.6581 5.20319 41.1687 4.71548C41.6794 4.22189 42.4453 3.9751 43.4665 3.9751C44.4646 3.9751 45.2102 4.22483 45.7034 4.72429C46.1967 5.22376 46.4433 5.97293 46.4433 6.9719V7.64178H45.2073V6.9719C45.2073 6.36076 45.0623 5.90242 44.7722 5.59689C44.4878 5.29134 44.0526 5.13856 43.4665 5.13856C42.8573 5.13856 42.3989 5.28546 42.0914 5.57926C41.7896 5.86717 41.6388 6.30203 41.6388 6.88373V7.50955C41.6388 7.96202 41.7577 8.33218 41.9956 8.6201C42.2335 8.90807 42.5382 9.15487 42.9095 9.36054C43.2809 9.56029 43.6668 9.76009 44.0671 9.95984C44.3746 10.1127 44.6735 10.2801 44.9636 10.4623C45.2538 10.6444 45.5149 10.8589 45.747 11.1057C45.9849 11.3525 46.1706 11.6492 46.304 11.9959C46.4433 12.3426 46.5129 12.7569 46.5129 13.2387V14.0496C46.5129 15.0544 46.2605 15.8065 45.7557 16.306C45.2508 16.8055 44.4907 17.0552 43.4752 17.0552ZM49.929 16.923V5.15618H51.1824V16.923H49.929ZM47.4832 5.2884V4.10731H53.6281V5.2884H47.4832ZM61.4962 4.10731V16.923H60.2428V5.18263L57.9188 6.6546V5.32365L59.7203 4.10731H61.4962ZM66.2528 17.0552C65.3531 17.0552 64.6568 16.7996 64.1638 16.2884C63.6703 15.7772 63.4235 15.0544 63.4235 14.1201V6.91019C63.4235 5.97592 63.6703 5.25314 64.1638 4.74192C64.6568 4.2307 65.3531 3.9751 66.2528 3.9751C67.1519 3.9751 67.8482 4.2307 68.3417 4.74192C68.8347 5.25314 69.0815 5.97592 69.0815 6.91019V14.1201C69.0815 15.0544 68.8347 15.7772 68.3417 16.2884C67.8482 16.7996 67.1519 17.0552 66.2528 17.0552ZM66.2528 15.8741C66.7513 15.8741 67.1374 15.7214 67.4103 15.4158C67.6888 15.1043 67.8281 14.6725 67.8281 14.1201V6.91019C67.8281 6.35196 67.6888 5.92008 67.4103 5.61452C67.1374 5.30896 66.7513 5.15618 66.2528 5.15618C65.7537 5.15618 65.3648 5.30896 65.0863 5.61452C64.8134 5.92008 64.6769 6.35196 64.6769 6.91019V14.1201C64.6769 14.6725 64.8134 15.1043 65.0863 15.4158C65.3648 15.7214 65.7537 15.8741 66.2528 15.8741ZM73.7506 17.0552C72.8744 17.0552 72.1959 16.8143 71.7141 16.3325C71.2384 15.8447 71.0005 15.1602 71.0005 14.2788V13.7411H72.2538V14.2788C72.2538 14.7782 72.3842 15.1661 72.6455 15.4422C72.9067 15.7184 73.2749 15.8565 73.7506 15.8565C74.2325 15.8565 74.6068 15.7184 74.8736 15.4422C75.1405 15.1602 75.2742 14.7694 75.2742 14.27V10.903C75.2742 10.3976 75.1494 10.0098 74.8998 9.7395C74.6503 9.46332 74.296 9.32523 73.8375 9.32523C73.3735 9.32523 73.0137 9.46039 72.7585 9.7307C72.5034 9.99516 72.3753 10.3712 72.3753 10.8589H71.279V4.10731H76.4228V5.2884H72.5324V8.87575C72.6772 8.63482 72.8861 8.44974 73.159 8.32045C73.4376 8.19116 73.7244 8.12651 74.0208 8.12651C74.8157 8.12651 75.4307 8.37037 75.8657 8.85809C76.3069 9.33995 76.5275 10.0216 76.5275 10.903V14.27C76.5275 15.1573 76.2835 15.8447 75.7961 16.3325C75.3148 16.8143 74.633 17.0552 73.7506 17.0552Z" fill="#06131E"/>
</g>
<defs>
<clipPath id="clip0_2284_1226">
<rect width="83" height="22" fill="white"/>
</clipPath>
</defs>
</svg>
